<?xml version="1.0" standalone="no"?>
<!DOCTYPE svg PUBLIC "-//W3C//DTD SVG 20010904//EN"
 "http://www.w3.org/TR/2001/REC-SVG-20010904/DTD/svg10.dtd">
<svg version="1.0" xmlns="http://www.w3.org/2000/svg"
 width="279.000000pt" height="279.000000pt" viewBox="0 0 279.000000 279.000000"
 preserveAspectRatio="xMidYMid meet">
<metadata>
Created by potrace 1.14, written by Peter Selinger 2001-2017
</metadata>
<g transform="translate(0.000000,279.000000) scale(0.100000,-0.100000)"
fill="#000000" stroke="none">
<path d="M0 2550 c0 -132 2 -240 5 -240 4 0 18 6 33 14 51 25 118 36 166 27
25 -4 43 -5 41 0 -3 4 10 12 29 19 19 6 37 18 40 26 9 22 8 24 -10 24 -14 0
-14 3 -3 16 9 11 10 17 1 22 -6 4 -13 19 -15 33 -3 15 -10 35 -15 45 -6 11
-13 27 -16 38 -5 15 -9 16 -21 6 -10 -8 -15 -9 -15 -2 0 6 5 14 10 17 17 10
11 25 -10 25 -15 0 -19 7 -18 33 3 85 0 94 -34 102 l-33 8 30 6 c49 11 6 21
-86 21 l-79 0 0 -240z"/>
<path d="M250 2779 c0 -22 41 -175 55 -206 8 -17 15 -41 15 -52 0 -19 2 -20
20 -9 11 7 20 22 20 34 0 23 22 31 113 41 32 3 47 1 47 -7 0 -7 6 -10 14 -7
19 7 30 -22 15 -40 -18 -20 -2 -29 19 -10 22 20 46 22 39 5 -19 -51 -18 -58 5
-67 13 -6 17 -10 11 -10 -8 -1 -11 -12 -9 -31 2 -17 0 -33 -5 -36 -5 -3 -9 0
-9 5 0 6 -10 11 -22 11 -19 0 -20 -2 -8 -10 8 -5 10 -10 4 -10 -7 0 -14 -9
-17 -20 -3 -11 -13 -20 -22 -20 -12 0 -15 -5 -11 -16 3 -9 6 -17 6 -20 0 -2
12 1 26 6 14 6 36 7 48 4 16 -4 25 0 29 10 8 20 37 21 37 1 0 -9 -12 -21 -27
-28 -16 -6 -34 -18 -42 -25 -8 -8 -27 -12 -42 -10 -23 4 -26 2 -18 -9 9 -10 8
-13 -4 -13 -8 0 -17 -6 -20 -14 -4 -11 4 -13 39 -10 25 3 53 0 62 -6 14 -9 12
-11 -10 -7 -15 2 -25 0 -22 -4 3 -5 -3 -9 -14 -9 -10 0 -22 -3 -26 -7 -8 -8
-12 -9 -55 -11 -24 -2 -24 -2 -5 -17 10 -8 34 -15 52 -15 35 0 40 -10 16 -34
-15 -15 -38 -17 -59 -4 -5 3 -29 9 -53 13 -23 4 -49 13 -56 21 -18 18 -32 18
-17 1 6 -8 7 -18 3 -22 -4 -5 0 -6 8 -3 9 3 24 0 35 -8 10 -8 29 -14 42 -14
13 0 23 -4 23 -8 0 -19 -52 -55 -82 -59 -18 -2 -38 -10 -44 -18 -6 -8 -14 -12
-17 -8 -4 3 -7 1 -7 -5 0 -6 5 -14 10 -17 6 -3 10 -2 10 4 0 6 19 16 43 22 23
7 46 16 52 21 20 17 34 8 32 -21 -2 -29 -3 -29 -24 -15 -27 17 -33 18 -33 3 0
-5 5 -7 10 -4 6 3 10 2 10 -4 0 -17 -22 -24 -31 -10 -7 12 -11 11 -26 -4 -17
-17 -17 -18 0 -11 10 3 17 1 17 -5 0 -6 -4 -11 -10 -11 -5 0 -10 -5 -10 -12 0
-6 10 -3 21 8 22 19 22 19 14 -6 -7 -22 -6 -24 9 -11 9 8 15 20 12 27 -3 7 -1
16 4 19 6 4 10 -5 10 -19 0 -13 6 -27 13 -29 7 -4 6 -6 -4 -6 -9 -1 -19 -7
-22 -15 -4 -10 0 -12 14 -9 11 3 19 0 19 -6 0 -7 -5 -9 -11 -6 -13 9 -49 -28
-49 -49 0 -10 6 -13 17 -9 11 4 14 3 9 -5 -4 -7 -16 -12 -27 -12 -10 0 -19 -4
-19 -10 0 -14 10 -13 43 4 23 13 27 13 27 0 0 -8 8 -14 17 -14 13 0 14 -3 5
-12 -8 -8 -15 -8 -27 2 -9 7 -15 8 -15 2 0 -6 6 -12 13 -15 9 -3 9 -7 -1 -19
-8 -10 -9 -19 -4 -22 6 -3 13 1 16 10 6 15 8 15 27 -2 17 -16 22 -16 30 -4 7
12 10 11 15 -7 8 -28 13 -28 30 -5 12 15 15 15 23 2 7 -10 6 -17 -4 -23 -8 -4
-15 -13 -15 -20 0 -7 12 1 26 17 14 15 28 25 32 22 3 -4 0 -11 -8 -16 -16 -10
-15 -12 22 -28 20 -8 29 -8 34 0 4 7 10 5 16 -6 5 -9 14 -13 20 -10 6 4 14 0
19 -7 6 -10 9 -11 9 -1 0 6 5 12 11 12 6 0 9 -8 5 -17 -4 -12 0 -10 10 5 20
27 39 29 24 2 -7 -14 -7 -20 0 -20 5 0 17 15 25 33 10 20 14 24 11 10 -2 -12
2 -27 10 -34 8 -6 14 -17 14 -24 0 -7 16 -12 40 -13 22 -1 40 1 40 6 0 4 89 7
198 7 189 0 200 1 274 27 42 16 111 37 155 48 43 11 103 26 133 35 30 8 74 15
98 15 53 0 99 19 131 54 l24 26 -24 20 c-19 17 -21 23 -9 30 11 7 11 12 2 23
-7 8 -13 26 -14 41 -1 14 -6 26 -10 26 -15 0 -49 36 -65 68 -12 24 -13 35 -4
46 12 14 5 92 -9 101 -5 3 -6 -5 -3 -17 l5 -23 -21 23 c-11 13 -28 22 -38 21
-21 -2 -55 10 -65 25 -10 15 -80 16 -112 0 -16 -8 -30 -14 -32 -14 -1 0 0 16
3 35 6 36 -3 44 -26 23 -11 -11 -12 -9 -6 11 7 22 5 23 -20 17 -22 -6 -26 -4
-22 8 7 19 -23 46 -52 46 -32 0 -21 24 12 28 16 2 43 -6 63 -18 32 -21 36 -21
53 -6 25 23 105 21 157 -5 60 -29 153 -124 181 -186 14 -29 28 -53 32 -53 8 0
28 -16 88 -71 18 -16 35 -29 37 -29 4 0 1 57 -7 125 -1 14 -29 40 -44 41 -7 1
-20 2 -28 3 -9 0 -15 11 -15 26 0 17 -4 23 -14 19 -9 -3 -15 4 -18 21 -5 23
-3 25 22 22 41 -7 88 -35 107 -64 20 -31 36 -155 23 -187 -7 -20 -3 -29 25
-56 l34 -33 20 24 c11 13 28 40 38 59 10 19 32 58 50 86 17 28 41 78 52 110
14 42 20 51 21 32 0 -15 -5 -39 -10 -54 -8 -20 -8 -36 1 -56 6 -15 12 -28 13
-28 1 0 16 4 34 9 30 9 46 -1 19 -13 -6 -3 3 -3 21 0 20 3 32 1 32 -5 0 -6 4
-11 10 -11 15 0 50 -33 44 -42 -3 -4 0 -8 5 -8 6 0 11 5 11 12 0 6 6 4 13 -5
9 -13 37 -20 107 -27 91 -9 123 -15 163 -26 16 -5 17 12 17 264 0 207 -3 272
-12 275 -10 4 -10 6 0 6 10 1 12 34 11 146 l-1 145 -329 0 c-196 -1 -329 -5
-329 -10 0 -5 -11 -12 -24 -16 -13 -3 -26 -14 -29 -25 -3 -11 -11 -18 -18 -17
-7 2 -18 -7 -24 -19 -5 -13 -15 -23 -22 -23 -7 0 -13 -6 -13 -14 0 -8 -10 -16
-22 -18 -13 -2 -24 -10 -24 -18 -1 -8 -2 -19 -3 -25 -1 -5 -17 -28 -36 -50
-20 -22 -38 -47 -40 -55 -3 -8 -21 -25 -40 -36 -30 -20 -43 -22 -147 -17 -95
4 -128 1 -209 -18 -92 -22 -98 -25 -123 -64 -15 -24 -26 -33 -26 -23 0 9 5 20
10 23 12 8 13 25 1 25 -5 0 -14 -14 -21 -30 -16 -38 -25 -33 -10 5 6 15 8 30
6 33 -10 9 -44 -42 -57 -83 -6 -22 -14 -34 -16 -27 -3 7 -14 -6 -26 -28 -15
-31 -17 -44 -8 -49 9 -6 9 -14 0 -35 -9 -19 -15 -23 -20 -14 -6 9 -13 0 -24
-26 -13 -31 -16 -68 -14 -175 2 -123 1 -136 -14 -133 -9 2 -17 -2 -17 -7 0 -6
-7 -7 -17 -4 -11 4 -14 3 -9 -5 4 -7 1 -12 -10 -12 -12 0 -15 6 -11 21 4 15 2
18 -7 10 -9 -7 -19 -6 -33 4 -11 8 -23 11 -27 8 -3 -3 -6 -2 -6 4 0 5 -8 19
-17 30 -10 11 -29 35 -42 52 -14 18 -38 46 -54 63 -16 16 -25 33 -21 37 8 5 9
16 5 46 -1 6 -8 2 -15 -8 -8 -10 -17 -14 -20 -9 -3 5 1 15 9 22 7 6 11 19 8
28 -8 21 -39 52 -53 52 -17 0 -11 53 10 88 12 19 15 30 8 26 -10 -6 -11 -5 -1
7 7 8 10 25 6 37 -4 16 3 30 27 52 18 16 30 23 26 15 -3 -8 -1 -15 4 -15 6 0
10 4 10 9 0 5 13 14 29 19 25 9 30 8 34 -9 5 -17 38 -28 36 -11 -3 19 2 25 12
12 8 -12 9 -11 7 5 -2 11 -9 26 -15 33 -17 18 -16 31 3 39 9 3 12 9 7 12 -13
10 -36 54 -24 46 6 -3 11 -3 11 2 0 12 -16 35 -24 34 -20 -2 -33 13 -29 32 4
17 3 19 -6 7 -14 -21 -25 -6 -12 19 8 14 8 22 0 26 -6 4 -8 13 -5 21 3 7 0 16
-6 20 -7 4 -6 9 3 15 11 7 11 9 1 9 -7 0 -12 6 -11 13 1 6 -3 24 -9 40 l-12
27 -178 0 c-129 0 -182 -3 -191 -12 -11 -10 -13 -10 -7 0 5 8 -1 12 -22 12
-45 0 -110 -56 -142 -123 -23 -47 -29 -54 -34 -39 -9 26 41 105 85 138 l33 24
-87 0 c-56 0 -87 -4 -87 -11z m650 -129 c0 -5 -2 -10 -4 -10 -3 0 -8 5 -11 10
-3 6 -1 10 4 10 6 0 11 -4 11 -10z m1394 -136 c3 -8 2 -12 -4 -9 -6 3 -10 10
-10 16 0 14 7 11 14 -7z m486 -79 c0 -9 -6 -12 -15 -9 -8 4 -12 10 -9 15 8 14
24 10 24 -6z m-1800 -25 c0 -5 -2 -10 -4 -10 -3 0 -8 5 -11 10 -3 6 -1 10 4
10 6 0 11 -4 11 -10z m206 -307 c-11 -11 -17 4 -9 23 7 18 8 18 11 1 2 -10 1
-21 -2 -24z m824 -68 c0 -5 -5 -3 -10 5 -5 8 -10 20 -10 25 0 6 5 3 10 -5 5
-8 10 -19 10 -25z m-1500 -34 c0 -6 -4 -13 -10 -16 -5 -3 -10 1 -10 9 0 9 5
16 10 16 6 0 10 -4 10 -9z m-10 -45 c0 -3 -4 -8 -10 -11 -5 -3 -10 -1 -10 4 0
6 5 11 10 11 6 0 10 -2 10 -4z m11 -29 c-10 -9 -11 -8 -5 6 3 10 9 15 12 12 3
-3 0 -11 -7 -18z m-14 -49 c-3 -8 -6 -5 -6 6 -1 11 2 17 5 13 3 -3 4 -12 1
-19z m33 2 c0 -5 -2 -10 -4 -10 -3 0 -8 5 -11 10 -3 6 -1 10 4 10 6 0 11 -4
11 -10z m-5 -50 c3 -5 2 -10 -4 -10 -5 0 -13 5 -16 10 -3 6 -2 10 4 10 5 0 13
-4 16 -10z m4 -29 c9 -6 10 -11 2 -15 -6 -4 -11 -2 -11 4 0 6 -4 8 -10 5 -5
-3 -10 -1 -10 4 0 13 10 14 29 2z m156 -20 c3 -5 2 -12 -3 -15 -5 -3 -9 1 -9
9 0 17 3 19 12 6z m-115 -37 c0 -19 -16 -18 -24 2 -11 27 -7 37 9 24 8 -7 15
-19 15 -26z m47 4 c0 -13 -1 -17 -4 -10 -3 6 -10 9 -16 5 -7 -4 -6 1 2 10 17
21 17 21 18 -5z m120 -4 c-3 -3 -12 -4 -19 -1 -8 3 -5 6 6 6 11 1 17 -2 13 -5z
m-20 -66 c-3 -8 -6 -5 -6 6 -1 11 2 17 5 13 3 -3 4 -12 1 -19z m-47 -8 c0 -5
-2 -10 -4 -10 -3 0 -8 5 -11 10 -3 6 -1 10 4 10 6 0 11 -4 11 -10z m250 -48
c0 -15 -11 -21 -27 -15 -12 5 -12 7 -1 14 17 11 28 11 28 1z"/>
<path d="M1030 2774 c0 -8 4 -13 9 -10 4 3 8 -7 8 -22 0 -15 7 -67 16 -116 9
-49 17 -131 17 -182 0 -52 3 -94 6 -94 4 0 38 18 76 40 60 34 72 38 94 28 21
-10 27 -9 40 10 9 14 41 29 87 42 40 12 86 27 103 35 34 14 173 23 192 11 11
-7 124 8 142 19 21 13 97 121 93 133 -3 6 2 12 10 12 21 0 40 27 42 60 2 34
-2 36 -32 15 -14 -10 -24 -12 -28 -5 -3 5 -16 9 -28 9 -16 -1 -17 -3 -5 -6 9
-2 24 -15 32 -29 16 -24 16 -24 -16 -24 -24 0 -29 3 -18 9 8 6 18 7 22 5 4 -3
5 2 2 11 -5 11 -10 13 -19 5 -10 -8 -16 -7 -24 7 -10 17 -12 17 -29 -3 -9 -11
-23 -19 -29 -17 -6 2 -17 -2 -25 -10 -11 -13 -16 -11 -35 9 -14 16 -28 22 -39
17 -12 -4 -15 -3 -10 5 4 7 14 12 22 12 8 0 14 5 14 11 0 14 -42 1 -56 -17
-15 -18 -25 -18 -18 1 4 9 0 15 -10 15 -9 0 -16 -3 -16 -7 0 -5 -14 -9 -30
-10 -21 -2 -30 2 -30 13 0 8 4 12 10 9 5 -3 19 0 30 8 19 13 18 14 -10 14 -16
0 -31 -6 -34 -14 -3 -7 -17 -13 -31 -13 -14 0 -28 -6 -31 -14 -4 -11 -12 -12
-35 -4 -16 5 -29 15 -29 21 0 7 4 7 12 -1 16 -16 45 -15 51 2 7 17 -1 26 -20
26 -8 0 -11 -5 -7 -12 6 -10 4 -10 -7 0 -19 17 -39 15 -39 -5 0 -13 -3 -14
-11 -6 -9 9 -15 8 -27 -3 -18 -19 -29 -10 -12 11 8 10 9 15 1 15 -6 0 -14 -11
-17 -26 -5 -21 -11 -25 -37 -22 -17 2 -33 10 -35 18 -5 13 -3 13 11 1 11 -8
17 -9 17 -3 0 6 6 9 14 6 7 -3 16 1 19 9 4 11 -19 14 -129 14 -78 1 -132 -3
-128 -8 3 -5 1 -9 -5 -9 -5 0 -13 5 -16 10 -10 16 -35 12 -35 -6z m520 -48 c0
-3 -4 -8 -10 -11 -5 -3 -10 -1 -10 4 0 6 5 11 10 11 6 0 10 -2 10 -4z m-39
-38 c8 -15 14 -17 22 -9 6 6 16 11 22 11 5 0 3 -4 -5 -10 -12 -8 -12 -10 2
-15 21 -8 98 13 98 27 0 6 3 8 7 4 5 -4 -1 -15 -12 -23 -11 -8 -15 -17 -9 -19
5 -3 9 -18 8 -34 -1 -19 3 -30 11 -30 9 0 11 -8 7 -22 -3 -12 -7 -17 -9 -11
-3 8 -14 9 -36 2 -42 -12 -43 -12 -20 9 23 20 34 47 27 65 -5 14 -104 21 -104
7 0 -13 -59 -9 -71 6 -8 10 -8 14 0 14 6 0 11 -4 11 -9 0 -5 9 -7 21 -4 26 7
23 50 -3 45 -10 -2 -18 3 -18 12 0 20 38 8 51 -16z m334 22 c-3 -5 -11 -10
-16 -10 -6 0 -7 5 -4 10 3 6 11 10 16 10 6 0 7 -4 4 -10z m-434 -30 c5 0 9 -9
9 -20 0 -12 10 -24 24 -30 32 -12 43 -30 18 -30 -10 0 -22 -3 -26 -7 -12 -12
-37 -12 -33 0 2 7 12 10 22 9 16 -3 17 -1 6 12 -7 8 -19 12 -27 9 -21 -8 -37
42 -21 68 10 16 13 17 15 4 2 -8 8 -15 13 -15z m209 20 c0 -5 -5 -10 -11 -10
-5 0 -7 5 -4 10 3 6 8 10 11 10 2 0 4 -4 4 -10z m-170 -14 c0 -3 -4 -8 -10
-11 -5 -3 -10 -1 -10 4 0 6 5 11 10 11 6 0 10 -2 10 -4z m406 -9 c4 -4 0 -7
-9 -7 -9 0 -18 4 -21 9 -7 10 20 9 30 -2z m-136 -17 c0 -5 -7 -7 -15 -4 -8 4
-12 10 -9 15 6 11 24 2 24 -11z m70 11 c0 -6 -4 -13 -10 -16 -5 -3 -10 1 -10
9 0 9 5 16 10 16 6 0 10 -4 10 -9z m100 -5 c0 -7 -9 -16 -20 -19 -25 -6 -26 1
-2 19 22 17 22 17 22 0z m-552 -43 c0 -21 -2 -23 -10 -9 -5 9 -6 21 -3 26 10
16 13 12 13 -17z m348 -20 c-7 -7 -26 7 -26 19 0 6 6 6 15 -2 9 -7 13 -15 11
-17z m74 17 c0 -5 -4 -10 -10 -10 -5 0 -10 5 -10 10 0 6 5 10 10 10 6 0 10 -4
10 -10z m-166 -35 c-26 -18 -29 -11 -7 14 10 12 19 17 21 11 2 -6 -4 -17 -14
-25z m-77 19 c-3 -3 -12 -4 -19 -1 -8 3 -5 6 6 6 11 1 17 -2 13 -5z m243 -25
c0 -14 -26 -11 -39 5 -9 11 -6 12 14 8 14 -2 25 -8 25 -13z m80 11 c13 -8 13
-10 -2 -10 -9 0 -20 5 -23 10 -8 13 5 13 25 0z m-465 -10 c3 -5 -1 -10 -9 -10
-9 0 -16 5 -16 10 0 6 4 10 9 10 6 0 13 -4 16 -10z m338 -17 c4 -3 2 -12 -4
-20 -9 -10 -15 -10 -25 -2 -8 6 -11 15 -8 20 6 11 28 12 37 2z m92 -13 c-3 -5
-13 -10 -21 -10 -8 0 -14 5 -14 10 0 6 9 10 21 10 11 0 17 -4 14 -10z m-630
-90 c3 -5 1 -10 -4 -10 -6 0 -11 5 -11 10 0 6 2 10 4 10 3 0 8 -4 11 -10z"/>
<path d="M2005 2780 c3 -6 -1 -13 -9 -16 -9 -3 -16 -11 -16 -17 0 -5 9 -2 20
8 22 20 26 35 9 35 -5 0 -7 -5 -4 -10z"/>
<path d="M1750 2730 c0 -5 5 -10 10 -10 6 0 10 5 10 10 0 6 -4 10 -10 10 -5 0
-10 -4 -10 -10z"/>
<path d="M565 2470 c-3 -5 -1 -10 4 -10 6 0 11 5 11 10 0 6 -2 10 -4 10 -3 0
-8 -4 -11 -10z"/>
<path d="M590 2419 c0 -5 5 -7 10 -4 6 3 10 8 10 11 0 2 -4 4 -10 4 -5 0 -10
-5 -10 -11z"/>
<path d="M455 2310 c-4 -7 3 -8 22 -4 38 9 42 14 10 14 -14 0 -29 -5 -32 -10z"/>
<path d="M1470 2316 c0 -2 7 -6 15 -10 8 -3 15 -1 15 4 0 6 -7 10 -15 10 -8 0
-15 -2 -15 -4z"/>
<path d="M555 2290 c-3 -5 -1 -10 4 -10 6 0 11 5 11 10 0 6 -2 10 -4 10 -3 0
-8 -4 -11 -10z"/>
<path d="M41 2266 c12 -10 59 -15 59 -6 0 5 -14 10 -32 10 -17 0 -29 -2 -27
-4z"/>
<path d="M174 2249 c-5 -8 18 -14 40 -10 4 1 15 -4 24 -11 13 -11 14 -11 10 2
-5 17 -66 32 -74 19z"/>
<path d="M0 2226 c0 -23 24 -43 34 -28 5 9 75 7 99 -3 12 -5 17 -2 17 10 0 12
-6 16 -20 12 -11 -3 -20 -2 -20 2 0 4 -16 7 -36 8 -20 1 -41 6 -47 12 -17 17
-27 13 -27 -13z"/>
<path d="M440 2220 c31 -25 40 -25 40 -2 0 14 -8 19 -32 20 l-33 1 25 -19z"/>
<path d="M815 2231 c-3 -5 -1 -12 5 -16 5 -3 10 1 10 9 0 18 -6 21 -15 7z"/>
<path d="M1015 2220 c-3 -5 -1 -10 4 -10 6 0 11 5 11 10 0 6 -2 10 -4 10 -3 0
-8 -4 -11 -10z"/>
<path d="M1035 2210 c-38 -25 -48 -53 -35 -101 12 -43 30 -61 30 -29 0 11 4
28 9 38 12 22 33 103 29 108 -2 2 -17 -5 -33 -16z"/>
<path d="M277 2195 c3 -8 9 -12 14 -9 12 7 11 11 -5 17 -10 4 -13 1 -9 -8z"/>
<path d="M299 2173 c-13 -16 -12 -17 4 -4 9 7 17 15 17 17 0 8 -8 3 -21 -13z"/>
<path d="M7 2163 c-11 -10 -8 -143 3 -143 6 0 10 -5 10 -11 0 -5 -4 -8 -9 -5
-5 4 -10 -57 -10 -143 -1 -124 1 -150 14 -155 8 -3 15 -10 15 -15 0 -6 -6 -8
-14 -5 -10 4 -14 -6 -14 -41 -1 -25 2 -44 7 -41 4 3 27 6 52 7 47 2 79 22 79
48 0 10 -3 12 -8 5 -12 -18 -52 -24 -52 -7 0 8 5 11 11 8 12 -8 49 23 49 41 0
7 4 16 10 19 5 3 7 0 4 -8 -3 -8 0 -18 5 -22 6 -3 9 -11 6 -16 -4 -5 -2 -9 3
-9 13 0 23 28 12 32 -4 2 -1 10 8 18 14 13 15 12 9 -3 -4 -11 -1 -17 8 -17 9
0 12 -6 9 -15 -7 -18 26 -21 44 -3 7 7 12 8 12 2 0 -6 -4 -14 -9 -20 -6 -5 11
-9 46 -9 46 0 57 3 59 18 2 15 -2 17 -27 12 -23 -5 -29 -3 -29 10 0 11 5 15
16 11 12 -5 14 -1 9 15 -5 15 -4 19 4 15 6 -4 11 0 11 8 0 9 5 16 12 16 9 0 9
3 1 11 -13 13 -6 42 8 33 5 -3 9 -1 9 5 0 5 -6 12 -12 14 -8 3 -5 6 5 6 10 1
16 5 13 10 -3 5 3 11 14 14 11 3 20 13 20 22 0 15 -2 15 -16 4 -13 -10 -17
-10 -24 0 -6 10 -9 10 -15 1 -6 -9 -9 -9 -16 1 -4 7 -11 10 -16 5 -4 -4 0 -12
10 -17 21 -12 22 -29 1 -29 -15 0 -44 -23 -44 -34 0 -12 28 -6 33 7 3 6 5 -3
4 -21 0 -18 -3 -29 -6 -24 -8 13 -52 26 -73 23 -11 -1 -18 4 -18 13 0 19 20
32 29 18 7 -11 51 20 51 36 0 12 -24 22 -50 22 -11 0 -23 6 -27 13 -4 8 -16
16 -25 20 -10 3 -18 16 -18 27 0 22 -34 40 -76 40 -14 0 -24 6 -24 14 0 9 -9
12 -27 8 l-28 -4 22 22 c26 28 58 21 48 -10 -5 -15 -3 -18 9 -14 8 3 15 9 14
12 -2 19 3 23 17 12 17 -14 55 -4 55 16 0 8 -10 14 -24 14 -13 0 -26 4 -28 9
-1 5 -21 11 -43 14 -22 3 -51 10 -65 16 l-25 10 25 0 c14 0 52 -5 85 -12 33
-7 71 -10 85 -7 l25 6 -27 7 c-15 4 -29 16 -33 26 -3 11 -12 22 -20 25 -10 3
-12 0 -8 -11 5 -13 3 -14 -16 -3 -18 9 -26 9 -39 -2 -13 -11 -14 -11 -7 1 6
11 4 13 -9 8 -10 -4 -24 1 -36 13 -21 21 -32 24 -43 13z m70 -228 c-18 -17
-52 -21 -42 -4 8 11 48 29 54 23 2 -2 -4 -10 -12 -19z m76 9 c3 -3 -3 -16 -14
-27 -17 -19 -21 -20 -29 -7 -16 25 -11 40 13 40 13 0 26 -3 30 -6z m11 -39
c-4 -8 -1 -15 5 -15 6 0 11 6 12 13 0 10 2 10 6 0 2 -7 16 -13 30 -13 38 0 22
-22 -20 -27 -29 -3 -37 0 -37 12 0 12 -6 15 -22 9 -23 -6 -23 -6 1 15 29 25
32 26 25 6z m-79 -5 c3 -5 1 -10 -4 -10 -6 0 -11 5 -11 10 0 6 2 10 4 10 3 0
8 -4 11 -10z m180 -40 c3 -5 1 -10 -4 -10 -6 0 -11 5 -11 10 0 6 2 10 4 10 3
0 8 -4 11 -10z m-65 -50 c0 -5 -4 -10 -10 -10 -5 0 -10 5 -10 10 0 6 5 10 10
10 6 0 10 -4 10 -10z m-152 -47 c-6 -7 -14 -10 -19 -7 -15 9 -10 20 10 20 15
0 17 -3 9 -13z m182 5 c0 -14 -15 -16 -27 -3 -10 11 -9 13 7 12 11 -1 20 -5
20 -9z m-104 -10 c5 -8 0 -9 -15 -5 -12 3 -27 -1 -35 -8 -17 -17 -30 -7 -15
12 14 16 55 17 65 1z m134 -34 c0 -14 -4 -22 -10 -19 -5 3 -10 17 -10 31 0 14
4 22 10 19 6 -3 10 -17 10 -31z m40 6 c0 -5 -5 -10 -11 -10 -5 0 -7 5 -4 10 3
6 8 10 11 10 2 0 4 -4 4 -10z m-240 -80 c0 -5 -4 -10 -10 -10 -5 0 -10 5 -10
10 0 6 5 10 10 10 6 0 10 -4 10 -10z"/>
<path d="M415 2160 c-3 -5 -1 -10 4 -10 6 0 11 5 11 10 0 6 -2 10 -4 10 -3 0
-8 -4 -11 -10z"/>
<path d="M1840 2120 c0 -5 5 -10 10 -10 6 0 10 5 10 10 0 6 -4 10 -10 10 -5 0
-10 -4 -10 -10z"/>
<path d="M257 2100 c-6 -24 17 -47 29 -29 4 7 3 14 -4 17 -6 2 -8 10 -5 18 3
8 1 14 -5 14 -5 0 -12 -9 -15 -20z"/>
<path d="M271 2046 c-10 -12 -8 -13 8 -9 12 3 21 9 21 14 0 14 -16 11 -29 -5z"/>
<path d="M315 2040 c3 -5 13 -10 21 -10 8 0 12 5 9 10 -3 6 -13 10 -21 10 -8
0 -12 -4 -9 -10z"/>
<path d="M223 1963 c-18 -6 -16 -33 1 -33 8 0 21 -7 30 -15 9 -9 17 -11 21 -5
3 5 16 10 28 10 12 0 28 10 36 23 10 17 11 19 0 10 -15 -15 -43 -17 -34 -3 8
13 -1 13 -25 -2 -16 -10 -22 -10 -32 4 -7 8 -19 14 -25 11z"/>
<path d="M2287 1945 c-39 -7 -76 -20 -85 -30 -19 -19 -17 -19 73 4 22 6 52 13
68 16 15 3 27 10 27 15 0 6 -3 9 -7 9 -5 -1 -39 -7 -76 -14z"/>
<path d="M2030 1860 c0 -6 7 -10 15 -10 8 0 15 2 15 4 0 2 -7 6 -15 10 -8 3
-15 1 -15 -4z"/>
<path d="M2426 1831 c21 -16 49 -38 61 -50 34 -32 37 -25 7 15 -26 34 -70 64
-95 64 -7 0 6 -13 27 -29z"/>
<path d="M396 1755 c-25 -23 -36 -65 -17 -65 4 0 6 -11 3 -25 -4 -22 -1 -25
22 -25 19 0 25 4 20 13 -5 8 -2 8 9 -2 15 -12 17 -11 17 3 0 9 8 16 20 16 11
0 20 7 20 15 0 8 -7 15 -15 15 -8 0 -15 -4 -15 -8 0 -4 -13 -13 -29 -19 -26
-9 -30 -8 -34 9 -4 14 0 22 13 25 23 6 34 31 20 48 -5 6 -7 15 -3 18 18 19 -8
4 -31 -18z"/>
<path d="M1671 1663 c17 -33 17 -38 4 -46 -8 -4 -20 -5 -27 -1 -7 5 -9 2 -6
-7 4 -11 -2 -15 -21 -17 -19 -1 -22 1 -11 8 8 5 11 12 8 16 -4 4 -19 -1 -33
-10 -14 -9 -30 -14 -36 -11 -5 4 -15 2 -22 -3 -7 -6 -31 -12 -54 -14 -23 -3
-48 -9 -55 -16 -19 -15 -64 -31 -106 -38 -19 -3 -43 -7 -53 -9 -13 -3 -16 1
-12 13 5 12 0 11 -24 -6 -21 -15 -34 -19 -38 -12 -4 7 -19 9 -35 5 -15 -3 -30
-2 -33 2 -8 13 -263 8 -344 -7 -76 -14 -116 -9 -95 12 25 25 13 37 -37 34 -28
-1 -53 -5 -57 -9 -4 -4 -13 1 -20 11 -7 9 -14 12 -14 6 0 -15 -38 -25 -46 -12
-4 5 -18 8 -32 5 -15 -3 -32 1 -40 10 -11 11 -17 11 -22 3 -5 -9 -9 -9 -14 -1
-5 8 -12 6 -23 -5 -12 -12 -18 -13 -23 -3 -5 6 -17 9 -29 6 -12 -3 -23 -2 -25
1 -6 9 -146 6 -170 -4 -14 -5 -17 -4 -11 5 5 10 2 12 -11 7 -11 -3 -38 -7 -61
-8 l-43 -3 0 -782 0 -783 331 0 331 0 -4 30 c-3 17 -2 30 1 30 3 0 15 13 26
29 22 34 47 44 66 27 9 -8 10 -8 4 3 -5 9 -3 12 6 9 7 -2 16 -14 19 -27 5 -21
5 -21 19 -2 11 15 18 17 32 8 9 -6 15 -17 12 -24 -3 -7 2 -13 11 -13 20 0 21
14 1 30 -20 17 -20 51 0 44 10 -4 15 0 15 15 0 24 10 27 29 9 12 -11 13 -10 7
6 -4 13 2 25 21 42 15 13 28 22 30 21 6 -6 -10 -47 -19 -47 -5 0 -6 -4 -3 -10
4 -6 11 -5 19 3 8 6 12 15 10 19 -2 4 0 9 6 13 5 3 10 1 10 -5 0 -6 5 -8 11
-4 8 4 8 9 0 17 -15 15 -14 27 2 27 7 0 22 7 33 16 18 14 18 15 -6 10 -14 -3
-19 -3 -12 0 6 3 12 15 12 27 0 18 2 19 10 7 8 -12 10 -12 16 3 8 21 21 22 40
3 21 -22 18 -39 -5 -26 -12 6 -22 6 -25 1 -4 -5 0 -11 6 -14 10 -3 10 -9 0
-27 -10 -16 -11 -25 -3 -33 8 -8 11 -6 11 6 0 9 3 17 8 17 16 0 52 -32 52 -46
0 -8 4 -13 9 -10 5 3 14 -1 21 -9 10 -12 9 -15 -4 -15 -15 0 -15 -2 1 -24 10
-13 21 -22 26 -19 11 7 8 -10 -7 -29 -7 -10 -16 -15 -20 -11 -4 4 -4 -1 0 -11
4 -10 7 -27 8 -39 l1 -22 813 -3 813 -2 -1 469 c-1 354 -4 471 -13 475 -9 3
-9 5 1 5 6 1 12 8 12 17 0 10 -6 14 -14 11 -8 -3 -22 1 -33 8 -11 9 -13 14 -5
15 7 0 12 6 11 13 -4 30 2 46 20 52 16 5 19 17 20 95 1 72 -1 90 -13 90 -7 0
-17 7 -20 16 -10 26 -7 28 14 9 21 -19 21 -19 5 11 -8 16 -15 35 -15 42 0 6
-7 12 -15 12 -9 0 -32 17 -52 37 -35 37 -36 37 -20 7 10 -20 12 -35 6 -45 -17
-27 -10 -40 11 -19 24 24 34 25 55 4 11 -12 13 -20 6 -27 -8 -8 -15 -5 -25 9
-8 10 -18 16 -22 12 -4 -4 -1 -15 7 -25 9 -11 10 -14 1 -9 -7 4 -21 4 -33 1
-16 -5 -18 -10 -9 -20 7 -8 9 -19 5 -24 -8 -13 -57 -10 -68 4 -5 5 -5 -1 -2
-13 6 -22 5 -23 -17 -12 -29 16 -38 25 -15 17 9 -4 17 -2 17 4 0 7 -12 9 -30
7 -16 -3 -30 -1 -30 4 0 4 8 8 18 8 14 0 15 2 2 10 -8 5 -23 7 -32 4 -13 -4
-16 -1 -12 10 4 10 0 18 -10 22 -9 3 -16 12 -16 20 0 8 -7 14 -16 14 -8 0 -13
4 -9 9 3 5 -2 16 -10 24 -8 9 -15 17 -15 20 0 8 39 0 53 -12 13 -10 15 -9 10
9 -4 15 -12 20 -24 17 -10 -3 -16 0 -13 7 2 6 -10 17 -28 25 -18 8 -27 16 -20
19 24 8 11 18 -25 20 -21 2 -39 7 -41 11 -2 5 -12 7 -22 4 -15 -4 -20 0 -20
13 0 16 2 17 10 4 8 -12 11 -13 19 -1 6 9 10 9 12 2 6 -16 81 -19 86 -3 3 7
-1 12 -8 11 -17 -3 -42 6 -92 33 -50 26 -135 46 -167 38 -24 -6 -24 -6 8 -13
22 -4 31 -11 26 -18 -4 -7 1 -18 10 -25 11 -8 13 -14 7 -19 -6 -3 -11 -1 -11
5 0 7 -5 10 -12 8 -14 -5 -58 34 -58 52 0 7 -7 10 -15 7 -8 -4 -17 -2 -20 3
-8 13 -85 13 -85 1 0 -5 -20 -8 -45 -8 -25 1 -45 -2 -45 -7 0 -5 21 -47 46
-94 53 -99 46 -102 -15 -5 -27 43 -59 78 -86 96 -43 27 -71 36 -60 17 3 -6 -1
-7 -9 -4 -9 3 -16 10 -16 15 0 5 -9 9 -19 9 -11 0 -23 5 -27 11 -4 8 0 9 15 4
12 -4 21 -2 21 4 0 6 -3 11 -7 12 -32 3 -49 11 -72 33 -37 36 -42 33 -20 -11z
m626 -218 c0 -8 -4 -15 -9 -15 -4 0 -8 7 -8 15 0 8 4 15 8 15 5 0 9 -7 9 -15z
m33 -25 c0 -5 -2 -10 -4 -10 -3 0 -8 5 -11 10 -3 6 -1 10 4 10 6 0 11 -4 11
-10z m80 -39 c0 -4 -9 -7 -19 -8 -13 -1 -18 3 -15 12 5 13 34 10 34 -4z m320
-121 c0 -5 -8 -10 -17 -10 -15 0 -16 2 -3 10 19 12 20 12 20 0z m40 -30 c0 -5
-2 -10 -4 -10 -3 0 -8 5 -11 10 -3 6 -1 10 4 10 6 0 11 -4 11 -10z m-32 -25
c-3 -3 -9 2 -12 12 -6 14 -5 15 5 6 7 -7 10 -15 7 -18z m-18 -5 c0 -5 -5 -10
-11 -10 -5 0 -7 5 -4 10 3 6 8 10 11 10 2 0 4 -4 4 -10z m45 -120 c3 -5 2 -10
-4 -10 -5 0 -13 5 -16 10 -3 6 -2 10 4 10 5 0 13 -4 16 -10z m-20 -130 c3 -5
1 -10 -4 -10 -6 0 -11 5 -11 10 0 6 2 10 4 10 3 0 8 -4 11 -10z m35 -62 c0 -6
-6 -5 -15 2 -8 7 -15 14 -15 16 0 2 7 1 15 -2 8 -4 15 -11 15 -16z m-1499
-371 c-10 -9 -11 -8 -5 6 3 10 9 15 12 12 3 -3 0 -11 -7 -18z m-164 -59 c-3
-8 -6 -5 -6 6 -1 11 2 17 5 13 3 -3 4 -12 1 -19z m233 -22 c0 -6 -7 -1 -15 10
-8 10 -15 23 -15 28 0 6 7 1 15 -10 8 -10 15 -23 15 -28z m-245 -6 c3 -5 2
-10 -4 -10 -5 0 -13 5 -16 10 -3 6 -2 10 4 10 5 0 13 -4 16 -10z m39 -33 c-3
-8 0 -18 5 -22 6 -3 9 -11 6 -16 -3 -5 2 -6 11 -2 13 5 15 3 9 -7 -6 -10 -4
-12 8 -7 18 7 67 -11 67 -24 0 -4 -6 -9 -12 -12 -7 -2 -9 -8 -5 -13 4 -4 17
-3 27 4 26 16 25 16 26 -13 2 -30 -23 -30 -56 0 -18 16 -23 17 -30 5 -8 -13
-10 -13 -10 0 0 12 -2 12 -8 2 -5 -7 -16 -10 -26 -6 -16 6 -17 3 -11 -17 10
-33 15 -36 28 -18 8 11 18 14 32 8 21 -8 21 -8 -8 -14 -10 -2 -25 -12 -33 -22
-12 -16 -13 -16 -14 -1 0 9 -9 23 -20 31 -16 11 -19 22 -15 56 4 29 2 41 -7
41 -9 0 -8 3 2 10 12 8 13 13 2 30 -7 12 -8 20 -2 20 5 0 10 7 10 16 0 14 2
14 15 0 8 -8 12 -21 9 -29z m156 28 c7 -8 8 -15 2 -15 -5 0 -15 7 -22 15 -7 8
-8 15 -2 15 5 0 15 -7 22 -15z m-666 -24 c-13 -12 -21 -15 -26 -7 -4 6 0 14
10 18 30 12 36 8 16 -11z m106 -1 c0 -5 -2 -10 -4 -10 -3 0 -8 5 -11 10 -3 6
-1 10 4 10 6 0 11 -4 11 -10z m242 -12 c-7 -7 -12 -8 -12 -2 0 14 12 26 19 19
2 -3 -1 -11 -7 -17z m92 7 c3 -9 0 -15 -9 -15 -9 0 -12 6 -9 15 4 8 7 15 9 15
2 0 5 -7 9 -15z m-59 -39 c-8 -20 -22 -52 -30 -71 -16 -38 -22 -41 -45 -24
-13 9 -13 10 0 6 10 -3 25 17 48 66 33 71 56 89 27 23z m280 24 c3 -5 1 -10
-4 -10 -6 0 -11 5 -11 10 0 6 2 10 4 10 3 0 8 -4 11 -10z m-420 -9 c-15 -13
-62 -26 -50 -13 6 5 19 12 30 15 11 3 22 5 25 6 2 0 0 -3 -5 -8z m355 5 c0 -3
-4 -8 -10 -11 -5 -3 -10 -1 -10 4 0 6 5 11 10 11 6 0 10 -2 10 -4z m-370 -55
c0 -17 -15 -19 -28 -5 -11 12 -9 14 8 14 11 0 20 -4 20 -9z m-143 -36 c-7 -14
-15 -25 -19 -25 -11 0 -10 8 2 31 16 28 30 23 17 -6z m-55 -17 c-7 -7 -12 -8
-12 -2 0 14 12 26 19 19 2 -3 -1 -11 -7 -17z m155 -12 c-7 -13 -15 -22 -18
-20 -4 2 -13 -4 -20 -13 -12 -15 -12 -16 4 -10 40 15 6 -36 -41 -61 l-38 -20
-16 28 c-22 38 -10 48 15 13 10 -16 17 -21 15 -13 -4 13 87 118 104 120 3 0 1
-11 -5 -24z m323 -37 c0 -6 -4 -7 -10 -4 -5 3 -10 11 -10 16 0 6 5 7 10 4 6
-3 10 -11 10 -16z m77 -61 c-3 -8 -6 -5 -6 6 -1 11 2 17 5 13 3 -3 4 -12 1
-19z"/>
<path d="M1197 333 c-4 -3 -7 -11 -7 -17 0 -6 5 -5 12 2 6 6 9 14 7 17 -3 3
-9 2 -12 -2z"/>
<path d="M1140 321 c0 -6 4 -13 10 -16 6 -3 7 1 4 9 -7 18 -14 21 -14 7z"/>
<path d="M750 200 c0 -5 5 -10 10 -10 6 0 10 5 10 10 0 6 -4 10 -10 10 -5 0
-10 -4 -10 -10z"/>
<path d="M163 1628 c-2 -5 12 -8 31 -8 20 0 36 3 36 8 0 4 -14 7 -31 7 -17 0
-33 -3 -36 -7z"/>
<path d="M2435 1450 c3 -5 8 -10 11 -10 2 0 4 5 4 10 0 6 -5 10 -11 10 -5 0
-7 -4 -4 -10z"/>
<path d="M2520 1394 c0 -8 5 -12 10 -9 6 4 8 11 5 16 -9 14 -15 11 -15 -7z"/>
<path d="M2600 1332 c0 -4 9 -13 19 -19 16 -10 20 -9 24 8 4 17 3 18 -9 8 -10
-8 -14 -8 -14 0 0 6 -4 11 -10 11 -5 0 -10 -3 -10 -8z"/>
<path d="M2762 1008 c5 -15 28 -23 28 -10 0 5 -7 13 -16 16 -10 4 -14 1 -12
-6z"/>
<path d="M980 181 c0 -5 9 -7 20 -4 11 3 20 7 20 9 0 2 -9 4 -20 4 -11 0 -20
-4 -20 -9z"/>
<path d="M1106 114 c-4 -10 0 -24 9 -33 15 -15 16 -13 9 14 -9 38 -10 40 -18
19z"/>
<path d="M996 106 c3 -9 11 -16 16 -16 13 0 5 23 -10 28 -7 2 -10 -2 -6 -12z"/>
<path d="M767 34 c-4 -4 -7 -13 -7 -21 0 -9 16 -13 55 -13 58 0 75 14 28 23
-16 3 -37 8 -48 12 -11 3 -24 3 -28 -1z"/>
<path d="M1110 24 c0 -9 -5 -12 -12 -8 -21 13 -60 14 -55 1 2 -7 24 -13 49
-15 43 -3 46 -1 41 17 -6 25 -23 28 -23 5z"/>
</g>
</svg>
